<?xml version="1.0" encoding="UTF-8" standalone="no"?>
<svg
   xmlns:dc="http://purl.org/dc/elements/1.1/"
   xmlns:cc="http://creativecommons.org/ns#"
   xmlns:rdf="http://www.w3.org/1999/02/22-rdf-syntax-ns#"
   xmlns:svg="http://www.w3.org/2000/svg"
   xmlns="http://www.w3.org/2000/svg"
   xmlns:sodipodi="http://sodipodi.sourceforge.net/DTD/sodipodi-0.dtd"
   xmlns:inkscape="http://www.inkscape.org/namespaces/inkscape"
   sodipodi:docname="Blogo.svg"
   inkscape:version="1.0 (4035a4fb49, 2020-05-01)"
   inkscape:export-ydpi="96"
   inkscape:export-xdpi="96"
   inkscape:export-filename="C:\Users\asbee\OneDrive - Southern Illinois University Edwardsville\home\cook\cooksite\static\favicon.png"
   id="svg8"
   version="1.1"
   viewBox="0 0 52.916649 52.916668"
   height="52.916668mm"
   width="52.916649mm">
  <defs
     id="defs2">
    <inkscape:path-effect
       background_color="#ffffffff"
       background="true"
       hide_mask="false"
       invert="false"
       uri="#mask-powermask-path-effect161"
       lpeversion="1"
       is_visible="true"
       id="path-effect161"
       effect="powermask" />
    <clipPath
       id="clipPath87"
       clipPathUnits="userSpaceOnUse">
      <g
         aria-label="β"
         id="g91"
         style="font-style:normal;font-weight:normal;font-size:58.9929px;line-height:1.25;font-family:sans-serif;fill:#000000;fill-opacity:1;stroke:none;stroke-width:0.276025"
         transform="matrix(0.8950067,0,0,1.0266076,-15.985194,-48.852254)">
        <path
           d="m 38.603699,142.94759 c -0.05899,0.17698 -0.05899,0.29497 -0.05899,0.47195 0,0.58993 0.412951,0.7669 1.120865,0.7669 0.766908,0 1.297844,-0.47194 1.592809,-1.53381 l 3.834538,-15.45614 c 1.82878,3.71655 4.896411,6.25325 10.854694,6.25325 10.028793,0 17.343913,-8.61297 17.343913,-16.57701 0,-3.77554 -1.82878,-6.31224 -3.952524,-7.90505 3.185616,-2.30072 5.427346,-6.13526 5.427346,-9.910805 0,-4.719432 -3.480581,-7.787063 -8.671956,-7.787063 -8.14102,0 -16.400026,7.256127 -18.464778,15.456138 z m 25.484933,-33.86192 c -1.179858,0.70791 -2.536694,0.70791 -3.185616,0.70791 -0.471943,0 -2.477702,-0.11798 -2.477702,-0.53093 0.05899,-0.41295 2.477702,-0.53094 2.890652,-0.53094 1.061872,0 1.82878,0 2.772666,0.35396 z m 2.123745,-1.59281 c -1.887773,-0.53094 -3.65756,-0.53094 -4.601446,-0.53094 -1.710795,0 -5.663319,0.47195 -5.663319,2.65468 0,1.47483 2.595688,2.00576 4.778425,2.00576 1.002879,0 3.24461,0 5.604326,-0.94388 0.884893,1.06187 1.297843,2.18273 1.297843,3.71655 0,5.54533 -2.713673,17.16693 -11.79858,17.16693 -5.073389,0 -9.261885,-3.53957 -9.261885,-8.49497 0,-2.47771 2.65468,-13.39139 4.188496,-17.69787 2.005758,-5.722316 8.200013,-12.152542 15.102182,-12.152542 2.713674,0 3.893532,1.474822 3.893532,4.011517 0,2.772665 -1.82878,8.376995 -3.539574,10.264765 z"
           style="font-style:italic;font-variant:normal;font-weight:normal;font-stretch:normal;font-size:58.9929px;font-family:'Mathcad UniMath Prime';-inkscape-font-specification:'Mathcad UniMath Prime, Italic';font-variant-ligatures:normal;font-variant-caps:normal;font-variant-numeric:normal;font-variant-east-asian:normal;stroke-width:0.276025"
           id="path89" />
      </g>
    </clipPath>
    <mask
       id="mask-powermask-path-effect161"
       maskUnits="userSpaceOnUse">
      <path
         d="m 112.4433,68.795779 h 48.86575 V 117.66155 H 112.4433 Z"
         style="fill:#ffffff;fill-opacity:1"
         id="mask-powermask-path-effect161_box" />
      <g
         aria-label="β"
         id="g159"
         style="font-style:normal;font-weight:normal;font-size:58.9929px;line-height:1.25;font-family:sans-serif;fill:#000000;fill-opacity:1;stroke:none;stroke-width:0.276025"
         transform="matrix(0.8950067,0,0,1.0266076,81.510021,-26.355514)">
        <path
           d="m 38.603699,142.94759 c -0.05899,0.17698 -0.05899,0.29497 -0.05899,0.47195 0,0.58993 0.412951,0.7669 1.120865,0.7669 0.766908,0 1.297844,-0.47194 1.592809,-1.53381 l 3.834538,-15.45614 c 1.82878,3.71655 4.896411,6.25325 10.854694,6.25325 10.028793,0 17.343913,-8.61297 17.343913,-16.57701 0,-3.77554 -1.82878,-6.31224 -3.952524,-7.90505 3.185616,-2.30072 5.427346,-6.13526 5.427346,-9.910805 0,-4.719432 -3.480581,-7.787063 -8.671956,-7.787063 -8.14102,0 -16.400026,7.256127 -18.464778,15.456138 z m 25.484933,-33.86192 c -1.179858,0.70791 -2.536694,0.70791 -3.185616,0.70791 -0.471943,0 -2.477702,-0.11798 -2.477702,-0.53093 0.05899,-0.41295 2.477702,-0.53094 2.890652,-0.53094 1.061872,0 1.82878,0 2.772666,0.35396 z m 2.123745,-1.59281 c -1.887773,-0.53094 -3.65756,-0.53094 -4.601446,-0.53094 -1.710795,0 -5.663319,0.47195 -5.663319,2.65468 0,1.47483 2.595688,2.00576 4.778425,2.00576 1.002879,0 3.24461,0 5.604326,-0.94388 0.884893,1.06187 1.297843,2.18273 1.297843,3.71655 0,5.54533 -2.713673,17.16693 -11.79858,17.16693 -5.073389,0 -9.261885,-3.53957 -9.261885,-8.49497 0,-2.47771 2.65468,-13.39139 4.188496,-17.69787 2.005758,-5.722316 8.200013,-12.152542 15.102182,-12.152542 2.713674,0 3.893532,1.474822 3.893532,4.011517 0,2.772665 -1.82878,8.376995 -3.539574,10.264765 z"
           style="font-style:italic;font-variant:normal;font-weight:normal;font-stretch:normal;font-size:58.9929px;font-family:'Mathcad UniMath Prime';-inkscape-font-specification:'Mathcad UniMath Prime, Italic';font-variant-ligatures:normal;font-variant-caps:normal;font-variant-numeric:normal;font-variant-east-asian:normal;stroke-width:0.276025"
           id="path157" />
      </g>
    </mask>
    <filter
       y="-50"
       x="-50"
       width="100"
       height="100"
       style="color-interpolation-filters:sRGB"
       inkscape:label="filtermask-powermask-path-effect161"
       id="mask-powermask-path-effect161_inverse">
      <feColorMatrix
         result="fbSourceGraphic"
         type="saturate"
         values="1"
         id="mask-powermask-path-effect161_primitive1" />
      <feColorMatrix
         in="fbSourceGraphic"
         values="-1 0 0 0 1 0 -1 0 0 1 0 0 -1 0 1 0 0 0 1 0 "
         id="mask-powermask-path-effect161_primitive2" />
    </filter>
  </defs>
  <sodipodi:namedview
     inkscape:window-maximized="1"
     inkscape:window-y="-11"
     inkscape:window-x="-11"
     inkscape:window-height="986"
     inkscape:window-width="1920"
     inkscape:snap-text-baseline="false"
     showgrid="false"
     inkscape:document-rotation="0"
     inkscape:current-layer="layer1"
     inkscape:document-units="mm"
     inkscape:cy="9.2230708"
     inkscape:cx="-22.10228"
     inkscape:zoom="1.3154149"
     inkscape:pageshadow="2"
     inkscape:pageopacity="0.0"
     borderopacity="1.0"
     bordercolor="#666666"
     pagecolor="#ffffff"
     id="base" />
  <metadata
     id="metadata5">
    <rdf:RDF>
      <cc:Work
         rdf:about="">
        <dc:format>image/svg+xml</dc:format>
        <dc:type
           rdf:resource="http://purl.org/dc/dcmitype/StillImage" />
        <dc:title></dc:title>
      </cc:Work>
    </rdf:RDF>
  </metadata>
  <g
     transform="translate(-49.811482,-72.231095)"
     id="layer1"
     inkscape:groupmode="layer"
     inkscape:label="Layer 1">
    <path
       transform="matrix(1.1142971,0.18230236,-0.18230236,1.1142971,-59.255114,-30.147852)"
       inkscape:original-d="M 160.30905,93.228667 A 23.432879,23.432879 0 0 1 136.87617,116.66155 23.432879,23.432879 0 0 1 113.4433,93.228667 23.432879,23.432879 0 0 1 136.87617,69.795779 23.432879,23.432879 0 0 1 160.30905,93.228667 Z"
       inkscape:path-effect="#path-effect161"
       mask="url(#mask-powermask-path-effect161)"
       d="M 160.30905,93.228667 A 23.432879,23.432879 0 0 1 136.87617,116.66155 23.432879,23.432879 0 0 1 113.4433,93.228667 23.432879,23.432879 0 0 1 136.87617,69.795779 23.432879,23.432879 0 0 1 160.30905,93.228667 Z"
       style="fill:#85b1d5;fill-opacity:1;stroke-width:1.7713;stroke-linejoin:round"
       id="path20" />
    <g
       transform="matrix(0.7821286,0.09420093,-0.10805214,0.89713214,48.447547,-10.365425)"
       style="font-style:normal;font-weight:normal;font-size:58.9929px;line-height:1.25;font-family:sans-serif;fill:#1f69a4;fill-opacity:1;stroke:none;stroke-width:0.313597;stroke-opacity:1"
       id="text12"
       aria-label="β">
      <path
         id="path23"
         style="font-style:italic;font-variant:normal;font-weight:normal;font-stretch:normal;font-size:58.9929px;font-family:'Mathcad UniMath Prime';-inkscape-font-specification:'Mathcad UniMath Prime, Italic';font-variant-ligatures:normal;font-variant-caps:normal;font-variant-numeric:normal;font-variant-east-asian:normal;fill:#1f69a4;fill-opacity:1;stroke:none;stroke-width:0.313597;stroke-opacity:1"
         d="m 38.603699,142.94759 c -0.05899,0.17698 -0.05899,0.29497 -0.05899,0.47195 0,0.58993 0.412951,0.7669 1.120865,0.7669 0.766908,0 1.297844,-0.47194 1.592809,-1.53381 l 3.834538,-15.45614 c 1.82878,3.71655 4.896411,6.25325 10.854694,6.25325 10.028793,0 17.343913,-8.61297 17.343913,-16.57701 0,-3.77554 -1.82878,-6.31224 -3.952524,-7.90505 3.185616,-2.30072 5.427346,-6.13526 5.427346,-9.910805 0,-4.719432 -3.480581,-7.787063 -8.671956,-7.787063 -8.14102,0 -16.400026,7.256127 -18.464778,15.456138 z m 25.484933,-33.86192 c -1.179858,0.70791 -2.536694,0.70791 -3.185616,0.70791 -0.471943,0 -2.477702,-0.11798 -2.477702,-0.53093 0.05899,-0.41295 2.477702,-0.53094 2.890652,-0.53094 1.061872,0 1.82878,0 2.772666,0.35396 z m 2.123745,-1.59281 c -1.887773,-0.53094 -3.65756,-0.53094 -4.601446,-0.53094 -1.710795,0 -5.663319,0.47195 -5.663319,2.65468 0,1.47483 2.595688,2.00576 4.778425,2.00576 1.002879,0 3.24461,0 5.604326,-0.94388 0.884893,1.06187 1.297843,2.18273 1.297843,3.71655 0,5.54533 -2.713673,17.16693 -11.79858,17.16693 -5.073389,0 -9.261885,-3.53957 -9.261885,-8.49497 0,-2.47771 2.65468,-13.39139 4.188496,-17.69787 2.005758,-5.722316 8.200013,-12.152542 15.102182,-12.152542 2.713674,0 3.893532,1.474822 3.893532,4.011517 0,2.772665 -1.82878,8.376995 -3.539574,10.264765 z" />
    </g>
  </g>
</svg>
